<?xml version="1.0" encoding="UTF-8"?>
<svg version="1.1" xmlns="http://www.w3.org/2000/svg" width="108" height="109">
<path d="M0 0 C11.40732152 7.79637082 19.26492735 19.77562219 22.62890625 33.17578125 C25.19016776 48.78289274 23.07726444 63.90917736 13.94921875 77.08984375 C13.36269531 77.88003906 12.77617188 78.67023438 12.171875 79.484375 C11.69878906 80.14050781 11.22570312 80.79664062 10.73828125 81.47265625 C2.39805398 92.12830072 -10.7379843 98.30529769 -23.828125 100.484375 C-39.36322447 101.98543816 -53.15200603 97.96801988 -65.4140625 88.484375 C-75.2875409 80.18235112 -82.07803944 69.14792552 -84.828125 56.484375 C-86.29638599 37.54482087 -83.43751674 22.68390958 -71.140625 7.796875 C-52.75688885 -12.06036672 -22.2455363 -14.31082271 0 0 Z " fill="#FAFAFA" transform="translate(84.828125,8.515625)"/>
<path d="M0 0 C1.11677124 -0.02114868 1.11677124 -0.02114868 2.25610352 -0.04272461 C7.61992941 0.00436309 11.87336727 1.18351544 16.75 3.375 C17.54148438 3.72820313 18.33296875 4.08140625 19.1484375 4.4453125 C31.59076623 11.08449977 39.92200377 20.90588549 44.6875 34.1875 C47.62536786 45.64518466 45.86149009 56.49056417 41.75 67.375 C38.18129749 66.80458622 35.5205811 65.89590728 32.40625 64.07421875 C31.58181396 63.59742676 30.75737793 63.12063477 29.90795898 62.62939453 C29.03083252 62.11231934 28.15370605 61.59524414 27.25 61.0625 C25.37672414 59.96932851 23.50301279 58.87690302 21.62890625 57.78515625 C20.66484863 57.22199707 19.70079102 56.65883789 18.70751953 56.07861328 C15.7714792 54.38737262 12.81234964 52.74726126 9.83984375 51.12109375 C8.89238281 50.59749268 7.94492187 50.0738916 6.96875 49.53442383 C5.15300089 48.53266969 3.33157238 47.5411225 1.50390625 46.5612793 C-3.52086488 43.76174998 -6.61447072 41.54633582 -9.25 36.375 C-10.03400025 32.19366532 -9.46482555 30.73080481 -7.25 27.0625 C-4.73774354 24.41691149 -2.29461241 23.22284118 1.44140625 23.00390625 C6.40253352 23.80138018 10.55281473 26.75019309 14.75 29.375 C19.83126545 32.56071691 19.83126545 32.56071691 25.75 33.375 C25.75 32.055 25.75 30.735 25.75 29.375 C24.03631621 27.81644401 24.03631621 27.81644401 21.69921875 26.61328125 C20.85552734 26.13439453 20.01183594 25.65550781 19.14257812 25.16210938 C18.24990234 24.67548828 17.35722656 24.18886719 16.4375 23.6875 C15.55642578 23.18927734 14.67535156 22.69105469 13.76757812 22.17773438 C7.90180246 18.8902236 3.66851031 16.75575062 -3.25 17.375 C-6.02408915 18.57405427 -8.4823545 20.15004671 -11 21.8125 C-18.27366218 26.45995734 -23.53040873 28.46350143 -32.25 27.375 C-35.50140925 26.04084929 -38.36297903 24.37096511 -41.25 22.375 C-36.76051 12.68715316 -28.27594464 6.19738802 -18.5078125 2.2734375 C-12.39109676 0.46044973 -6.33863805 0.08766685 0 0 Z " fill="#636363" transform="translate(55.25,6.625)"/>
<path d="M0 0 C6.12763816 1.64500353 11.30128253 4.85019223 16.75 8 C18.80284959 9.17801757 20.85624215 10.35508941 22.91015625 11.53125 C23.93125488 12.11648437 24.95235352 12.70171875 26.00439453 13.3046875 C28.77613504 14.87330739 31.56489286 16.40035542 34.37109375 17.90625 C35.18803711 18.34710938 36.00498047 18.78796875 36.84667969 19.2421875 C38.36492023 20.05799635 39.88749821 20.86580354 41.41503906 21.6640625 C45.54057207 23.89555648 48.42397348 25.93705184 51 30 C51.64382155 34.42627318 51.3076673 36.44619886 49.125 40.375 C47 43 47 43 45 44 C38.18284379 44.64855108 34.50071554 43.1252168 28.8125 39.5 C22.90165754 35.54191288 22.90165754 35.54191288 16 35 C16.35541735 37.61738497 16.6233939 38.70814078 18.75 40.35620117 C19.86375 40.94365112 19.86375 40.94365112 21 41.54296875 C22.2065625 42.19362305 22.2065625 42.19362305 23.4375 42.85742188 C24.7059375 43.51581055 24.7059375 43.51581055 26 44.1875 C27.66723371 45.07575942 29.33392977 45.96502897 31 46.85546875 C31.7425 47.24371826 32.485 47.63196777 33.25 48.03198242 C35 49 35 49 36 50 C42.62106694 51.37231516 47.36476512 49.69076543 52.9375 46.125 C54.97273633 44.77141016 56.99613532 43.39961376 59 42 C63.5022493 38.99850047 67.722347 39.29402823 73 40 C76.54325976 41.34869436 79.76280059 43.03380513 83 45 C80.09166927 53.39053417 73.17559269 58.25166064 65.78515625 62.67578125 C58.38606867 66.19372051 51.8114004 67.53238663 43.625 67.4375 C42.23800903 67.42505249 42.23800903 67.42505249 40.82299805 67.41235352 C28.27687797 67.1018771 18.83247497 62.55677861 9.7734375 53.86328125 C-0.87361655 42.43863336 -3.57681795 31.58751718 -3.26953125 16.265625 C-3.02290472 10.63495154 -1.73167845 5.34964951 0 0 Z " fill="#626262" transform="translate(10,34)"/>
</svg>
